<svg id="Camada_1" data-name="Camada 1" xmlns="http://www.w3.org/2000/svg" viewBox="0 0 31.68 29.06"><defs><style>.cls-1{fill:#69b3a5;}</style></defs><path class="cls-1" d="M33.16,14.9c0,.09-.1.23-.17.4a7.26,7.26,0,0,0-.41,1.53,8.25,8.25,0,0,0,0,2.3,12.4,12.4,0,0,0,.64,2.74,24.25,24.25,0,0,0,2.24,4.71c.35.57.66,1,.88,1.34l.34.49-.12-.1L36.18,28a15.3,15.3,0,0,1-1.13-1.18,14.43,14.43,0,0,1-2.73-4.68,9.54,9.54,0,0,1-.54-3,7.36,7.36,0,0,1,.36-2.45,6.27,6.27,0,0,1,.72-1.49,4.13,4.13,0,0,1,.27-.36l.09-.12-.06.14ZM31.85,31.61a44.8,44.8,0,0,1-5,1.56A43.24,43.24,0,0,1,31.62,31a44.8,44.8,0,0,1,5-1.56,43.24,43.24,0,0,1-4.77,2.15Zm-5.2.5,0-.61c0-.39-.05-1-.1-1.65s-.12-1.51-.22-2.42-.22-1.9-.44-2.9a9.68,9.68,0,0,0-.94-2.69,6.08,6.08,0,0,0-1.47-1.78,4.59,4.59,0,0,0-1.39-.8c-.18-.06-.32-.15-.42-.17a.41.41,0,0,1-.16-.09h.16c.11,0,.26.06.46.08a4.55,4.55,0,0,1,1.6.58,5.82,5.82,0,0,1,1.86,1.77,8.35,8.35,0,0,1,1.18,2.9,16.1,16.1,0,0,1,.31,3.05A23.2,23.2,0,0,1,27,29.85c-.06.7-.15,1.27-.21,1.66s-.12.6-.12.6Zm-.79-14.26c.1.1.23.21.37.36s.3.31.46.5a10.84,10.84,0,0,1,1.07,1.43,12,12,0,0,1,1,2,11.65,11.65,0,0,1,.61,2.1A12.9,12.9,0,0,1,29.55,26c0,.25,0,.48,0,.68s0,.37,0,.52l0,.43-.1-.43c0-.13-.06-.3-.11-.49s-.1-.41-.17-.65c-.12-.48-.28-1-.48-1.65s-.43-1.28-.7-2-.55-1.33-.82-1.92-.54-1.1-.77-1.53L26,18.38c-.09-.17-.18-.32-.25-.44l-.22-.38.33.29Zm3.28.65c0-.29,0-.56.07-.81s.07-.47.1-.66a3.83,3.83,0,0,1,.11-.5l.11-.41,0,.43c0,.13,0,.3,0,.49s0,.41.06.66.06.5.1.78.09.57.14.88c.12.62.26,1.29.44,2s.38,1.35.58,1.95c.11.29.2.58.31.84l.29.73c.09.23.19.42.27.6s.15.33.21.45l.18.39-.3-.31c-.09-.1-.21-.23-.33-.38a6.58,6.58,0,0,1-.41-.53,8,8,0,0,1-.46-.68,8.88,8.88,0,0,1-.45-.82,11.34,11.34,0,0,1-.76-2,11.34,11.34,0,0,1-.32-2.13c0-.33,0-.64,0-.94ZM19.31,9.35a16,16,0,0,0-1.44,1.55,16.46,16.46,0,0,0-3.55,12.88,15.93,15.93,0,0,0,.44,2.06l.22.74s-.12-.25-.31-.71a12.39,12.39,0,0,1-.66-2,14.3,14.3,0,0,1,.11-7,14.1,14.1,0,0,1,3.52-6.1,13.46,13.46,0,0,1,1.6-1.41c.41-.3.64-.45.64-.45l-.57.52ZM44.4,17a10,10,0,0,0-1.2-3.21A17.59,17.59,0,0,0,36.76,7a16.46,16.46,0,0,0-12-1.61,16.21,16.21,0,0,0-10.33,8.27,16,16,0,0,0-1,12c.37,1.18,1.15,2.72,2.62,2.24,1-.32,5.32-1.33,5.5-2.53.15-1-1.77-1.77-2.08-2.67a1.92,1.92,0,0,1,1.77-2.56c4.21-.1,3.37,9.43,3.88,12a2.74,2.74,0,0,0,.58,1.35c1.13,1.2,3.46-.1,4.68-.51L36,31.11c2-.65,2.1-2.09,1.31-3.84-1.3-2.86-2.75-5.7-3.8-8.67a2.65,2.65,0,0,1,0-2.3,1.76,1.76,0,0,1,1.06-.68,2.53,2.53,0,0,1,2.41.69,2.64,2.64,0,0,1,.62,2.36c-.08.48-.61,1.26-.24,1.73s1.38.27,2,.1c.9-.25,1.79-.52,2.68-.83A4.85,4.85,0,0,0,43.9,18.6,1.82,1.82,0,0,0,44.4,17Z" transform="translate(-12.75 -4.88)"/></svg>