<svg id="Camada_1" data-name="Camada 1" xmlns="http://www.w3.org/2000/svg" viewBox="0 0 42.06 15.35"><defs><style>.cls-1{fill:#69b3a5;}</style></defs><path class="cls-1" d="M48,13.3a4.81,4.81,0,0,0-1.23,1.07,6.9,6.9,0,0,1-2.12,1.29c-.23.09-1.64.73-1.88.54a10.09,10.09,0,0,0-3-1.75,4.55,4.55,0,0,0-1,0c-.19,0-.24.17-.12.32a8.86,8.86,0,0,1,1.72,2.66,8.72,8.72,0,0,1,.24,4.19c0,.19.06.29.24.21a4.79,4.79,0,0,0,1.52-1,3.69,3.69,0,0,0,.79-2l.11-.68a.43.43,0,0,1,.29-.37l.24,0a18,18,0,0,0,2.4-.52A7,7,0,0,0,49,15.87a1.73,1.73,0,0,0,.64-1.19C49.62,13.91,48.82,12.89,48,13.3Z" transform="translate(-7.56 -11.74)"/><path class="cls-1" d="M7.69,20.47a6.92,6.92,0,0,0,3.15,3.45,9.74,9.74,0,0,0,2.66,1c4.85,1,16.06,2.47,20.55,2.16s6.34-5.58,5.15-9.15-6.59-7.65-9.43-5.61c-2.31,1.67-7.61,3.86-13,5-2.16.46-4.34.85-6.52,1.24a16.49,16.49,0,0,0-1.72.39C7.71,19.16,7.35,19.64,7.69,20.47Zm9.45-.95c1.33-.28,2.63-.63,3.93-1a59.94,59.94,0,0,0,6.43-2.4c1.6-.68,3.05-1.8,3.71-2,1-.25,2.14.54,1.68,1.68a4.27,4.27,0,0,1-1.45,1.84,12.87,12.87,0,0,1-5,1.84,42.21,42.21,0,0,1-8.09.74c-.72,0-3.53-.27-4.1-.16C15.2,19.91,16.19,19.73,17.14,19.52Z" transform="translate(-7.56 -11.74)"/></svg>