<svg id="Camada_1" data-name="Camada 1" xmlns="http://www.w3.org/2000/svg" viewBox="0 0 39.73 23.75"><defs><style>.cls-1{fill:#69b3a5;}</style></defs><path class="cls-1" d="M8.88,24.47c.72-.79-.62-2.63.47-3.56a31.38,31.38,0,0,1,3.75-1.83c.5-.24.27-.35.27-.35s-4.65-.36-4.13-1.59c.95-2.21-2-4,1.17-3.74A18,18,0,0,1,17.12,16a.4.4,0,0,1,.38-.05,7.05,7.05,0,0,0,3.38,0l.25-.1c-3.31,0-3.93-1.28-3.42-1.1,1.09.38,2.61-1.48,4-2.4S23.82,10.46,25,9.63s3-2.4,4.37-2c1.07.28,3.14,3.13,3.92,4.26,3-.25,6.71,1.48,8.18,2.54-.8,2.34-2,7.06-.63,11.29a21.2,21.2,0,0,1-7.45.55c-.29,1.1-1.14,3.91-2.43,4.73a1.82,1.82,0,0,1-2.79-1.16c0-.53-.14-2.3.43-2.93s1.86-.36,2.75-1a15.42,15.42,0,0,1-5.68-1.07c-1.47,1-5.72,3.79-5.78,2.33,0-1-.74-3.74-1.38-4.16a14.15,14.15,0,0,0,2.62-.88c-1.26-.46-2.14-.23-3.6-.14a1.06,1.06,0,0,1-.48-.08c-2.85,2.45-9.38,3.94-8.14,2.58Z" transform="translate(-8.72 -7.54)"/><path class="cls-1" d="M44.5,20.7a.92.92,0,1,1,.92-.92.92.92,0,0,1-.92.92Zm-2.78-6.1c-.79,2.34-1.94,6.91-.59,11,.38-.12.75-.24,1.12-.38,4.3-1.7,4-2.26,5.28-2.75s.15-1,.15-1a1.19,1.19,0,0,0,.77-1c0-.71-.35-.49-.35-.49s-1.76-1.42-2-1.7a5.75,5.75,0,0,0-2.18-1.62A8.69,8.69,0,0,1,42,14.92a1.49,1.49,0,0,0-.31-.32Z" transform="translate(-8.72 -7.54)"/></svg>