<svg id="Camada_1" data-name="Camada 1" xmlns="http://www.w3.org/2000/svg" viewBox="0 0 36.47 26.83"><defs><style>.cls-1{fill:#69b3a5;}</style></defs><path class="cls-1" d="M43,18.72a13.31,13.31,0,0,0-5.69-3.46A13.63,13.63,0,0,1,37,17.41c-.08.37-.17.75-.28,1.12a11.18,11.18,0,0,1,2,3.87,10.83,10.83,0,0,0,1.53,3.45,9,9,0,0,0,.8.91A19.17,19.17,0,0,0,43.88,29a7.68,7.68,0,0,0,2,1.06l.06,0C47.8,27.16,46.61,22.34,43,18.72Z" transform="translate(-10.35 -6)"/><path class="cls-1" d="M44.56,31.66a15.69,15.69,0,0,1-1.74-1,21.39,21.39,0,0,1-3.17-2.54,11.06,11.06,0,0,1-1-1.12A12.56,12.56,0,0,1,36.82,23a12.43,12.43,0,0,0-.9-2.19,21.2,21.2,0,0,1-4.42,6.37l-.21.2A15.48,15.48,0,0,0,32.72,29C36.54,32.82,41.68,33.93,44.56,31.66Z" transform="translate(-10.35 -6)"/><path class="cls-1" d="M11.58,28.09a.29.29,0,0,1,.1,0,11.43,11.43,0,0,0,3-1.54,27,27,0,0,0,4.12-3.29,13,13,0,0,0,1.16-1.31,16,16,0,0,0,2.23-5,15.53,15.53,0,0,1,3.27-6.1c.07-.09.17-.19.27-.3a12.2,12.2,0,0,1,4.67-2.63,16.92,16.92,0,0,0,1.85-.8A8.94,8.94,0,0,0,27.79,6C24,6,19.53,7.94,15.91,11.56,10.65,16.83,8.94,23.82,11.58,28.09Z" transform="translate(-10.35 -6)"/><path class="cls-1" d="M35.33,19.9a16.05,16.05,0,0,0,.7-2.13,13.12,13.12,0,0,0,.39-2.72,8.56,8.56,0,0,0-1.87-6,18.44,18.44,0,0,1-3.19,1.52,9.39,9.39,0,0,0-3.63,1.94l-.17.19a12.73,12.73,0,0,0-2.64,5,18.25,18.25,0,0,1-2.69,5.88,15.09,15.09,0,0,1-1.43,1.62,29.18,29.18,0,0,1-4.61,3.68,22.55,22.55,0,0,1-2.52,1.44A8.49,8.49,0,0,0,19,32.07c3.78,0,8.18-1.91,11.78-5.48l.1-.08A20.34,20.34,0,0,0,35.33,19.9Z" transform="translate(-10.35 -6)"/></svg>