<svg id="Camada_1" data-name="Camada 1" xmlns="http://www.w3.org/2000/svg" viewBox="0 0 41.73 22.91"><defs><style>.cls-1{fill:#69b3a5;}</style></defs><path class="cls-1" d="M7.72,20.75h6.79a11.9,11.9,0,0,1-.07-1.34,11.61,11.61,0,0,1,.07-1.33H7.72Z" transform="translate(-7.72 -7.95)"/><path class="cls-1" d="M49.46,18.08a6.85,6.85,0,0,0-6.54-5.49l-5.48,5.49Z" transform="translate(-7.72 -7.95)"/><path class="cls-1" d="M33.66,18.08,39.71,12a9.09,9.09,0,0,0-4.8-1.73l-7.77,7.79Z" transform="translate(-7.72 -7.95)"/><path class="cls-1" d="M14.51,18.08h8.86l8.45-8.47a11.45,11.45,0,0,0-17.31,8.47Z" transform="translate(-7.72 -7.95)"/><path class="cls-1" d="M25.89,30.87a11.39,11.39,0,0,0,5.93-1.65l-8.48-8.47H14.51A11.47,11.47,0,0,0,25.89,30.87Z" transform="translate(-7.72 -7.95)"/><path class="cls-1" d="M49.46,20.75h-12l5.48,5.48A6.83,6.83,0,0,0,49.46,20.75Z" transform="translate(-7.72 -7.95)"/><path class="cls-1" d="M39.71,26.8l-6.05-6.05H27.12l7.79,7.78A9.09,9.09,0,0,0,39.71,26.8Z" transform="translate(-7.72 -7.95)"/></svg>