<svg id="Camada_1" data-name="Camada 1" xmlns="http://www.w3.org/2000/svg" viewBox="0 0 47 31.65"><defs><style>.cls-1{fill:#69b3a5;}</style></defs><path class="cls-1" d="M6.57,22.56a1.52,1.52,0,0,1,.18,1.28,2.67,2.67,0,0,0,1.14-1.9c.14-1.29-.73-1.72-1-2.12l0-.09a3.6,3.6,0,0,0,.49-1.66,13,13,0,0,0-.07-1.38,13.28,13.28,0,0,1,0-2.4,12.47,12.47,0,0,1,.37-1.86c0,.23,0,.37,0,.37s2.08,6.94,2,7.8A10.79,10.79,0,0,1,9,22.73c.21-.1.41-.18.63-.26l.13.38a6.28,6.28,0,0,0-1,.45c-.22.56-.43,1-.54,1.3a17.67,17.67,0,0,0,.3,3.91h.15l0,.4H8.57a18.8,18.8,0,0,1,.31,3.43c-.2,1.16-.18,2.32.55,2.32s1,0,2.16,0c.2-1.84-1.36-1.77-1.36-3.47a17.72,17.72,0,0,1,.11-2.17l-1-.09-.4,0,0-.4.39,0h0l1.06.08c.15-.88.42-1.56.89-1.6a15.94,15.94,0,0,1,.86,1.73l.52,0,0,.4-.31,0c1.22,2.77,1.86,7,2.9,7h2.3c0-2.48-2.88-2-2.87-5.93a4.69,4.69,0,0,0,0-1l-1.32-.09h0l-.4,0,0-.4.4,0h0l1.24.08c-.23-1.9-.8-4.84-.09-5.53a.81.81,0,0,1,.36-.18c-.18-.09-.4-.19-.66-.29l-.37-.12.12-.39.39.14h0c.29.11.54.22.74.32v0h0c0-.44,0-.9,0-1.34h.4c0,.44,0,.89,0,1.34h0v.25l.09.05c2,0,6.16,1.25,8.28,1.52,2.63.33,9-1.64,9-1.64l-.57,4.34s-.07.92-.24,2l.91-.05,0,.4-1,.06a9,9,0,0,1-.53,2.39c-.34.7-.46,3.29.33,3.29s1.08-.07,2.64-.07c0-1.77-2.58-1.77-.63-5.73h-.14l-.4,0,0-.4.4,0,.49,0C36,26.71,35.37,25,36.06,24.9c.31,0,.93,2.8,1.39,4l.15,0,1.31-.19.06.4-1.32.18h0c.38,1.19.16,4.68,1.68,5,.27,0,1.28-.17,2.1-.17,0-2-2.6-2.22-2.26-5.09.28-1.72-.43-3.94-.3-4.54-.23-.19-.47-.38-.74-.58l.25-.32c.28.21.54.42.78.62.53-.22,1.62-.2,2.17-.82a27.3,27.3,0,0,0,1.65-3.34L42.51,20l-.39-.07.06-.39.4.06h0l.54.1a16.17,16.17,0,0,1,2-3.13c0-.12,0-.24,0-.38s0-.25-.05-.39l.39-.06c0,.14,0,.28.06.4v0l.16-.16c2.27-2.24,2.84-1.8,5.44-1.8s2.06-2.14,1.2-2.3A3.45,3.45,0,0,1,50.86,8c.23-.44,1.43-1,.67-1.92-.7,1.1-1.1.88-1.1.88s-.84-1.3-1.87-1.46-2.7.93-2.7.93-.58-.48-.28-1.82C44.51,4.78,45,7,45,7s-1.15.28-2.44.47l.21.37L42.45,8c-.09-.17-.19-.34-.29-.51a8.27,8.27,0,0,1-2.25.06,28.52,28.52,0,0,0-5.46-.28c0,.1-.06.22-.09.34s-.07.25-.1.38l-.39-.1c0-.13.07-.26.1-.39L34,7.35c-1.53.06-9.77-.3-16.15-.29-.07.21-.16.47-.25.76h0c0,.13-.09.25-.13.38l-.38-.12c0-.13.09-.26.13-.38h0c.07-.24.15-.46.21-.64-1.8,0-3.43.05-4.69.14-2.61.18-3.91,1.25-4.54,2.41a14.4,14.4,0,0,0-1.47,4.64,14.18,14.18,0,0,0,0,2.49c0,.46.08.89.08,1.33a3.28,3.28,0,0,1-.44,1.42,3.13,3.13,0,0,0-.5,1.39A2.31,2.31,0,0,0,6.57,22.56Zm38-8.72.39-.09.09.39h0c.09.44.17.89.24,1.33l-.39.06c-.07-.44-.15-.87-.24-1.31Zm-.51-1.92.38-.12.12.39h0c.12.42.24.86.34,1.3l-.39.09c-.1-.43-.21-.86-.34-1.28h0C44.18,12.17,44.14,12.05,44.1,11.92Zm-.67-1.87.37-.15.15.38q.24.62.45,1.26l-.38.13c-.14-.43-.29-.85-.44-1.25h0Zm-.85-1.78.35-.2c.07.12.13.24.19.36h0c.2.39.39.8.57,1.22l-.37.16C43.15,9.4,43,9,42.76,8.62ZM25,10.37h.37v.27c0,.13,0,.25,0,.37s0,.37,0,.55h0v.37a2.44,2.44,0,0,0,0,.27c0,.31,0,.62,0,.92H25c0-.3,0-.61,0-.92h0A1.62,1.62,0,0,0,25,12l-1.19,0h0l-.4,0,0-.4.41,0L25,11.57v-1.2Zm.13,5,0-.28.37,0v.28h0c0,.33,0,.64.06.91l-.37,0c0-.28,0-.59-.05-.92Zm0-.65c0-.29,0-.6,0-.92a2.72,2.72,0,0,0,0-.28h.37c0,.09,0,.18,0,.28h0c0,.31,0,.62,0,.91Zm0-5.91.37,0c0,.09,0,.18,0,.28h0c0,.28,0,.59,0,.91H25q0-.49,0-.93h0A2.72,2.72,0,0,1,25.05,8.8Zm.5-1.52,0,.27h0c0,.28-.06.58-.08.91l-.37,0c0-.33.05-.64.08-.92a2.36,2.36,0,0,1,0-.28Zm.11,10.53-.37,0s0-.35-.07-.92a2.65,2.65,0,0,0,0-.27l.37,0c0,.1,0,.19,0,.28h0C25.63,17.46,25.66,17.81,25.66,17.81Zm6.85-1.69h.4v.26c0,.37,0,.73.05,1,0,.14,0,.27,0,.39l-.4.06c0-.13,0-.27,0-.41h0c0-.33-.05-.69-.05-1.08Zm.15-2,.4.05c-.06.46-.1.91-.12,1.32h0c0,.13,0,.26,0,.39h-.4c0-.13,0-.27,0-.41C32.56,15,32.6,14.58,32.66,14.1ZM33,12l.42.08c-.08.45-.18,1-.24,1.46h0c0,.13,0,.27,0,.4l-.4-.05c0-.14,0-.27.05-.4h0C32.79,13.09,33,12,33,12Zm.38-1.81.39.08c-.09.45-.18.89-.26,1.31,0,.13,0,.26-.08.39L33,11.85c0-.14,0-.27.07-.4C33.15,11,33.25,10.59,33.34,10.14Zm.85-1.86c-.11.43-.21.87-.31,1.29l-.09.39-.39-.08.09-.4h0c.1-.43.2-.86.32-1.3ZM36,18.69l0,.39L34.59,19h0l-.4,0,0-.4.39,0h0Zm2,.22-.05.4-1.32-.15-.4-.05,0-.4.4.05Zm2.19.7.06-.39.4.05h0l1.32.21-.07.4-1.31-.21h0Zm-2-.27.05-.39.4.05h0l1.32.18,0,.39-1.32-.18h0Zm-1.69,3.42.23-.33.2.15c.3.2.59.4.89.62h0l.33.24-.24.32-.32-.23-.88-.63Zm-1.62-1.2.26-.31c.29.24.61.49,1,.8l.32.23-.23.33-.33-.23C35.48,22.06,35.15,21.81,34.85,21.56Zm-1.39-1.51.34-.22a5.69,5.69,0,0,0,.83,1h0l.28.27-.26.3c-.11-.09-.21-.19-.3-.28h0A6.61,6.61,0,0,1,33.46,20.05ZM32.2,18.77l0-.4.4,0h.09l-.06-.25.39-.08q0,.2.09.36l.82.07,0,.4-.65,0c.06.14.12.29.19.43a3.54,3.54,0,0,0,.19.33l-.34.21c-.07-.12-.14-.24-.2-.36a4.06,4.06,0,0,1-.27-.65H32.6Zm-2-.11v-.4l.4,0,1.34.07,0,.4-1.33-.07Zm-2-.05v-.4h.4l1.33,0v.4l-1.33,0h-.4Zm-2-.41H28v.4H26.22Zm-2,.07.4,0h0l1.34,0v.4l-1.33,0h0l-.39,0Zm-2,.13.4,0h0c.43,0,.88-.07,1.34-.09l0,.4c-.45,0-.9.05-1.33.09h0l-.39,0Zm-.15-5.88c-.08.08-.19.17-.31.27l-.25-.31.2-.18a2.86,2.86,0,0,1,1.41-.59l0,.39c-.74.1-.91.23-.94.27ZM20.2,18.63l.4-.06,1.33-.14,0,.4L20.65,19h0l-.39.05ZM20.11,14l-.22-.33.32-.22h0c.41-.28.78-.55,1.07-.78l.25.31c-.3.24-.68.51-1.09.8h0Zm-1.89,5,.39-.07,1.33-.22,0,.4c-.44.06-.88.13-1.31.21l-.39.08Zm0-4.24.34-.2c.37-.22.75-.46,1.12-.71l.22.33c-.38.25-.76.5-1.13.72h0l-.35.21ZM15.06,12.6l.39.1A7.6,7.6,0,0,0,15.24,14h0c0,.14,0,.27,0,.4l-.4,0v0A4.58,4.58,0,0,1,15.06,12.6Zm1.23-1.39a1.54,1.54,0,0,0-.65.88,3,3,0,0,0-.13.36l-.38-.11c0-.15.09-.28.13-.4h0a2,2,0,0,1,.84-1.09l.08,0S16.25,11.11,16.29,11.21Zm.19-.93.39.09c0,.12-.21.69-.41.77a2.45,2.45,0,0,0-.15-.39A1.37,1.37,0,0,0,16.48,10.28Zm.93-1.82c-.15.46-.27.89-.38,1.27h0c0,.13-.06.26-.1.38L16.55,10c0-.13.06-.26.1-.39h0c.1-.39.23-.82.38-1.29Zm.76,6.73A11.43,11.43,0,0,1,17,15.8h0a2.25,2.25,0,0,1-.4.15l-.12-.38.36-.13h0q.48-.21,1.17-.6Zm-1.91,4.22.38-.1c.43-.11.87-.21,1.31-.3l.08.39-1.29.29-.38.1Zm-1.15,1.85c0-.13,0-.26,0-.4,0-.47,0-.92.06-1.34l.4,0v.05l.42-.12.11.39c-.18.05-.38.1-.55.16l0,.85h0c0,.13,0,.27,0,.4Zm.52-2.38,0,.4-.4,0,0-.41c0-.5.08-1,.13-1.34l.39,0C15.71,17.94,15.66,18.39,15.63,18.88Zm-.83-4v-.26h.4v.25a3.57,3.57,0,0,0,0,.67.87.87,0,0,0,.13.06,1.61,1.61,0,0,0,.35,0l.25,0h.25l.05.39h-.14a2,2,0,0,0-.28.88l-.06.39-.4-.06c0-.14,0-.27.07-.4a4.69,4.69,0,0,1,.2-.79,1.51,1.51,0,0,1-.39,0,.57.57,0,0,1-.4-.31A3.26,3.26,0,0,1,14.8,14.89Zm-2.89,7.62v-.4l.41,0a7.12,7.12,0,0,1,1.35.25l-.11.38a6.29,6.29,0,0,0-1.27-.23Zm-2-.12.4-.11h0a5.63,5.63,0,0,1,1.36-.17v.4a5.41,5.41,0,0,0-1.28.16h0l-.38.1Z" transform="translate(-5.94 -4.61)"/></svg>