<svg id="Camada_1" data-name="Camada 1" xmlns="http://www.w3.org/2000/svg" viewBox="0 0 47 26.02"><defs><style>.cls-1{fill:#69b3a5;}</style></defs><path class="cls-1" d="M43.42,25c-.18-.1-.37-.24-.57-.35l-.16-.22a8.19,8.19,0,0,0-.94-1.28,1.85,1.85,0,0,0-1.62-.45,4.32,4.32,0,0,0-1,.34,5.1,5.1,0,0,1,.45.48c.27.31.58.81,1,1.23a1.82,1.82,0,0,0,1.54.46,3.18,3.18,0,0,0,.72-.17l.45.24a4.7,4.7,0,0,0,1.11.45c.83.2,1.69.27,2.55.39a11.58,11.58,0,0,1,2.67.72,6.72,6.72,0,0,1,2.47,1.56s.05,0,0,0a4.65,4.65,0,0,0-2-1.57A10.72,10.72,0,0,0,47.49,26c-.93-.18-1.89-.23-2.8-.46A4.65,4.65,0,0,1,43.42,25Z" transform="translate(-5.09 -5.58)"/><path class="cls-1" d="M46.8,31.56a4.41,4.41,0,0,0-.85-2,4.24,4.24,0,0,0-2.26-1.19c-1.12-.28-2.29-.47-2.95-1.42a4.18,4.18,0,0,0-.94-1.15c0-.07,0-.15,0-.24a8.11,8.11,0,0,0-.28-1.47,1.43,1.43,0,0,0-1.24-.88,3.73,3.73,0,0,0-1.11,0s.1.2.18.58a9.21,9.21,0,0,0,.36,1.45,1.47,1.47,0,0,0,1.21.86,2.86,2.86,0,0,0,.81,0,1.72,1.72,0,0,1,.33.33,8.78,8.78,0,0,0,.73,1,4.81,4.81,0,0,0,2.4,1,4.8,4.8,0,0,1,2.58,1.14,5.4,5.4,0,0,1,1,1.95s.09,0,.08,0Z" transform="translate(-5.09 -5.58)"/><path class="cls-1" d="M40.94,21.48a2.5,2.5,0,0,0-.66-.45,2.12,2.12,0,0,0-1.8,0,11.26,11.26,0,0,0-1.6.95c-.4.26-.66.36-.66.38a3.66,3.66,0,0,0,.85.52,2.13,2.13,0,0,0,1.73,0c.63-.29,1.18-.67,1.6-.89l.29-.14c.27,0,.55.07.82.12.55.11,1.09.26,1.65.37a15.44,15.44,0,0,0,2.81.22,14.23,14.23,0,0,1,3,.18,3.16,3.16,0,0,1,2.26,1.68h0a2.4,2.4,0,0,0-1.57-1.7,8.59,8.59,0,0,0-3.07-.43A18.39,18.39,0,0,1,43.38,22c-.6-.12-1.19-.27-1.8-.39l-.64-.13Z" transform="translate(-5.09 -5.58)"/><path class="cls-1" d="M43.48,31.38c-.22-.39-.29-.84-.5-1.24a3.49,3.49,0,0,0-.76-1A9.44,9.44,0,0,0,40,27.81a4,4,0,0,1-1.82-1.37A5,5,0,0,0,37.21,25c0-.06,0-.14-.06-.22a8.35,8.35,0,0,0-.37-1.45,1.47,1.47,0,0,0-1.32-.8,4,4,0,0,0-1.12.1s.11.19.21.56A10.17,10.17,0,0,0,35,24.61a1.52,1.52,0,0,0,1.29.78,3.15,3.15,0,0,0,.83,0,1.84,1.84,0,0,1,.38.49,5.9,5.9,0,0,0,.53.95,4.23,4.23,0,0,0,1.57,1.11A11.33,11.33,0,0,1,42,29.21a3.37,3.37,0,0,1,.93,1.17,7.4,7.4,0,0,0,.52,1Z" transform="translate(-5.09 -5.58)"/><path class="cls-1" d="M34,21.36c-.39.29-.65.41-.64.42a3,3,0,0,0,.89.48A2.25,2.25,0,0,0,36,22.12c.62-.33,1.17-.74,1.58-1a4.64,4.64,0,0,1,.62-.32c.27-.09.52-.2.77-.31a5.2,5.2,0,0,1,2.82-.23,14.79,14.79,0,0,0,2.66.25,6.64,6.64,0,0,1,3.08.23c.08,0,.15-.05.08-.09a5.37,5.37,0,0,0-2.77-.42,16.57,16.57,0,0,1-3-.24,5.78,5.78,0,0,0-2.68.09c-.39.15-.75.34-1.14.47h0a2.25,2.25,0,0,0-.6-.34,2.23,2.23,0,0,0-1.83.08A13.69,13.69,0,0,0,34,21.36Z" transform="translate(-5.09 -5.58)"/><path class="cls-1" d="M37.4,28.4a9,9,0,0,1-.81-1.69,4.18,4.18,0,0,0-1-1.33,5.29,5.29,0,0,0-1-.75,2.1,2.1,0,0,1-.19-.48A8,8,0,0,0,34,22.72,1.47,1.47,0,0,0,32.61,22a3.94,3.94,0,0,0-1.14.17,4.36,4.36,0,0,1,.25.55,8.6,8.6,0,0,0,.52,1.4,1.52,1.52,0,0,0,1.35.71,4.4,4.4,0,0,0,.76,0,.24.24,0,0,1,.11.06,5.39,5.39,0,0,1,1.15.9c.82.78,1,1.89,1.7,2.73,0,.05.12,0,.09-.07Z" transform="translate(-5.09 -5.58)"/><path class="cls-1" d="M34.5,19.6a2.27,2.27,0,0,0-1.86.2,12.74,12.74,0,0,0-1.56,1.14,6.67,6.67,0,0,1-.64.46,3.4,3.4,0,0,0,.94.42,2.34,2.34,0,0,0,1.79-.25c.61-.36,1.15-.81,1.56-1.08a5.38,5.38,0,0,1,.51-.31,8.6,8.6,0,0,0,1.66-.73,9.34,9.34,0,0,1,3.31-1.39c.08,0,.07-.1,0-.09a7.65,7.65,0,0,0-3.07,1,13.2,13.2,0,0,1-1.56.75l-.45.14a2.39,2.39,0,0,0-.62-.29Z" transform="translate(-5.09 -5.58)"/><path class="cls-1" d="M22.76,22.46a8.69,8.69,0,0,0,.77,1.29,1.59,1.59,0,0,0,1.53.44,4.87,4.87,0,0,0,1.11-.33,4.85,4.85,0,0,1-.31-.52A7.28,7.28,0,0,0,25.15,22a1.55,1.55,0,0,0-1.56-.45,5.29,5.29,0,0,0-1.17.39s.16.16.34.5Z" transform="translate(-5.09 -5.58)"/><path class="cls-1" d="M28,24.22A4.61,4.61,0,0,0,29.08,24a3.41,3.41,0,0,1-.29-.53,7.79,7.79,0,0,0-.62-1.37,1.54,1.54,0,0,0-1.51-.54,4.69,4.69,0,0,0-1.17.32,2.5,2.5,0,0,1,.32.52,9.55,9.55,0,0,0,.69,1.33,1.58,1.58,0,0,0,1.47.53Z" transform="translate(-5.09 -5.58)"/><path class="cls-1" d="M31.66,23.7a8,8,0,0,0-.54-1.4,1.47,1.47,0,0,0-1.45-.63,4.5,4.5,0,0,0-1.16.24,2.61,2.61,0,0,1,.29.53,8.45,8.45,0,0,0,.61,1.37,1.54,1.54,0,0,0,1.41.63,4.47,4.47,0,0,0,1.09-.19s-.12-.18-.25-.55Z" transform="translate(-5.09 -5.58)"/><path class="cls-1" d="M21.83,20.83c-.36.38-.61.56-.6.58a3.69,3.69,0,0,0,1,.23,2.69,2.69,0,0,0,1.84-.6c.59-.48,1.08-1,1.46-1.37a8,8,0,0,1,.65-.53,3.59,3.59,0,0,0-1-.31,2.53,2.53,0,0,0-1.91.55,13.11,13.11,0,0,0-1.45,1.45Z" transform="translate(-5.09 -5.58)"/><path class="cls-1" d="M25,20.67c-.36.36-.62.52-.61.54a3.84,3.84,0,0,0,1,.29A2.48,2.48,0,0,0,27.19,21c.61-.43,1.11-.95,1.51-1.27s.66-.46.65-.48a3.28,3.28,0,0,0-1-.38,2.53,2.53,0,0,0-1.91.43A14.26,14.26,0,0,0,25,20.67Z" transform="translate(-5.09 -5.58)"/><path class="cls-1" d="M28.06,20.71c-.38.34-.63.48-.63.5a4,4,0,0,0,1,.36,2.42,2.42,0,0,0,1.81-.37c.61-.39,1.13-.88,1.53-1.17a5.38,5.38,0,0,1,.67-.44,3.25,3.25,0,0,0-1-.44,2.38,2.38,0,0,0-1.88.31,13.61,13.61,0,0,0-1.53,1.25Z" transform="translate(-5.09 -5.58)"/><polygon class="cls-1" points="18.54 21.09 18.55 21.08 18.54 21.09 18.54 21.09"/><path class="cls-1" d="M20.55,27.6c-2.46.33-3.33-2.11-6.27-3.41a7.8,7.8,0,0,0-2.76-.62A33.78,33.78,0,0,1,19.6,22c-.69,2,1.41,2.54,2.13,2.39A12.88,12.88,0,0,0,23.17,24s-.16-.16-.34-.5A7.09,7.09,0,0,0,22,22.17a2.6,2.6,0,0,0-1.49-.62,2.55,2.55,0,0,0,.38-.29c.58-.52,1.05-1.1,1.43-1.47s.63-.55.62-.57A3.26,3.26,0,0,0,21.92,19a2.61,2.61,0,0,0-2,.6,1.5,1.5,0,0,0-.43,1.73c-.81.23-4.75.79-8.06,1.75.38-.24.79-.51,1.23-.82,2.88-2,4.67-4.2,6.83-4.27s2.34.57,2.35.56-.25-1.26-2.28-1.23S16,18.91,12.92,21.34A22.85,22.85,0,0,1,9,23.78c-1.31.42-2.2.76-2.19.76-.6.48-1.18,1-1.76,1.48,0,0,1.5-.71,3.55-1.48a8.68,8.68,0,0,1,5.53.74C17,27.11,18,28.77,20.24,28.46a5.3,5.3,0,0,0,3.39-1.79c-.08.08-.77.68-3.08.93Z" transform="translate(-5.09 -5.58)"/><path class="cls-1" d="M30.74,10.16h-.52L30,10.06a6.9,6.9,0,0,0-1.13-.49,1.4,1.4,0,0,0-1.26.32,3.11,3.11,0,0,0-.57.64,2.9,2.9,0,0,1,.49.14,11.34,11.34,0,0,0,1.15.44,1.44,1.44,0,0,0,1.21-.29,2.71,2.71,0,0,0,.42-.39h.39a4.16,4.16,0,0,0,.92-.13c.64-.19,1.24-.48,1.86-.73A9.53,9.53,0,0,1,35.59,9a5.2,5.2,0,0,1,2.26.09l0,0a3.65,3.65,0,0,0-2-.26,8.11,8.11,0,0,0-2,.41c-.69.24-1.36.58-2.06.78a3.41,3.41,0,0,1-1,.16Z" transform="translate(-5.09 -5.58)"/><path class="cls-1" d="M35.54,13.23a3.57,3.57,0,0,0-1.36-1,3.33,3.33,0,0,0-2,.08,3.58,3.58,0,0,1-2.54.19,3.24,3.24,0,0,0-1.08-.41l-.12-.14a6.83,6.83,0,0,0-.76-.88,1.14,1.14,0,0,0-1.18-.11,2.89,2.89,0,0,0-.73.45,2.8,2.8,0,0,1,.35.32,7.43,7.43,0,0,0,.8.84,1.16,1.16,0,0,0,1.15.11,2.51,2.51,0,0,0,.55-.3l.36.09a6.55,6.55,0,0,0,.86.37,3.72,3.72,0,0,0,2-.22,3.72,3.72,0,0,1,2.17-.24,4.14,4.14,0,0,1,1.43.92s.07,0,0,0Z" transform="translate(-5.09 -5.58)"/><path class="cls-1" d="M27.69,8.73a2.17,2.17,0,0,0-.62-.05,1.65,1.65,0,0,0-1.21.69,8.6,8.6,0,0,0-.71,1.26c-.17.33-.3.5-.29.51a2.76,2.76,0,0,0,.77,0,1.65,1.65,0,0,0,1.15-.69c.31-.44.54-.91.73-1.22L27.64,9l.6-.23c.42-.14.84-.25,1.25-.4a11.51,11.51,0,0,0,2-.93,10.68,10.68,0,0,1,2.08-1.05,2.48,2.48,0,0,1,2.17.25h0A1.85,1.85,0,0,0,34,6.13a6.89,6.89,0,0,0-2.24.9,14.35,14.35,0,0,1-2.26,1.11l-1.36.43-.48.16Z" transform="translate(-5.09 -5.58)"/><path class="cls-1" d="M33.23,14.4c-.3-.18-.52-.46-.81-.65a2.62,2.62,0,0,0-.9-.36,7.24,7.24,0,0,0-2,0,3,3,0,0,1-1.75-.21,3.8,3.8,0,0,0-1.2-.62l-.12-.13a7.64,7.64,0,0,0-.81-.83,1.13,1.13,0,0,0-1.2,0,3.36,3.36,0,0,0-.72.5,1.93,1.93,0,0,1,.37.3,7.6,7.6,0,0,0,.85.79,1.19,1.19,0,0,0,1.17,0,2.93,2.93,0,0,0,.55-.34,1.51,1.51,0,0,1,.44.18,4.11,4.11,0,0,0,.73.43,3.33,3.33,0,0,0,1.48.14,8.42,8.42,0,0,1,2.12-.06,2.55,2.55,0,0,1,1.08.42,7.2,7.2,0,0,0,.74.48v0Z" transform="translate(-5.09 -5.58)"/><path class="cls-1" d="M23,11.34c-.15.34-.28.52-.27.53a2.68,2.68,0,0,0,.78,0,1.72,1.72,0,0,0,1.13-.78c.29-.45.5-1,.69-1.27a3.17,3.17,0,0,1,.28-.46,4.71,4.71,0,0,0,.4-.51,4,4,0,0,1,1.81-1.24,12.23,12.23,0,0,0,1.88-.86,5.24,5.24,0,0,1,2.16-1c.07,0,.08-.09,0-.09a4.14,4.14,0,0,0-2,.8,13.75,13.75,0,0,1-2.09,1A4.41,4.41,0,0,0,26,8.47c-.2.25-.37.52-.58.76h0a2.49,2.49,0,0,0-.54,0,1.73,1.73,0,0,0-1.19.77A9.48,9.48,0,0,0,23,11.34Z" transform="translate(-5.09 -5.58)"/><path class="cls-1" d="M28,14.75a6.21,6.21,0,0,1-1.2-.82,3.44,3.44,0,0,0-1.17-.52,4.19,4.19,0,0,0-.95-.12,2.54,2.54,0,0,1-.31-.25,6.94,6.94,0,0,0-.86-.78,1.15,1.15,0,0,0-1.21.05,3,3,0,0,0-.7.56,3.46,3.46,0,0,1,.38.27,6.24,6.24,0,0,0,.9.74,1.19,1.19,0,0,0,1.18-.05,2.84,2.84,0,0,0,.48-.33h.1a4.1,4.1,0,0,1,1.12.16c.85.21,1.4.89,2.2,1.17.05,0,.08-.06,0-.08Z" transform="translate(-5.09 -5.58)"/><path class="cls-1" d="M22.64,10a1.72,1.72,0,0,0-1.17.85,11.12,11.12,0,0,0-.61,1.37c-.13.36-.26.55-.25.56a2.62,2.62,0,0,0,.79-.08,1.83,1.83,0,0,0,1.11-.86c.27-.48.46-1,.63-1.33a4.38,4.38,0,0,1,.22-.41,6.37,6.37,0,0,0,.83-1.14,7.09,7.09,0,0,1,1.69-2.21c.05,0,0-.09-.05-.06a6.16,6.16,0,0,0-1.66,1.88,9,9,0,0,1-.75,1.11,2.16,2.16,0,0,1-.25.27,2.05,2.05,0,0,0-.53.05Z" transform="translate(-5.09 -5.58)"/><path class="cls-1" d="M15.87,16.44a6.86,6.86,0,0,0,1,.57,1.27,1.27,0,0,0,1.2-.3,4.36,4.36,0,0,0,.62-.65s-.17-.06-.42-.23a6.22,6.22,0,0,0-1-.62,1.2,1.2,0,0,0-1.22.31,4.16,4.16,0,0,0-.64.72,2.22,2.22,0,0,1,.43.2Z" transform="translate(-5.09 -5.58)"/><path class="cls-1" d="M20.05,15.6a3.92,3.92,0,0,0,.64-.6s-.16-.07-.4-.25a7,7,0,0,0-.94-.68,1.19,1.19,0,0,0-1.23.23,3.55,3.55,0,0,0-.66.66,2.19,2.19,0,0,1,.41.23,7.69,7.69,0,0,0,1,.62,1.21,1.21,0,0,0,1.2-.21Z" transform="translate(-5.09 -5.58)"/><path class="cls-1" d="M22.32,13.82a6.25,6.25,0,0,0-.9-.73,1.14,1.14,0,0,0-1.22.14,3.44,3.44,0,0,0-.69.61,1.91,1.91,0,0,1,.4.25,7.72,7.72,0,0,0,.94.68A1.19,1.19,0,0,0,22,14.64a3.8,3.8,0,0,0,.67-.55,2.32,2.32,0,0,1-.39-.27Z" transform="translate(-5.09 -5.58)"/><path class="cls-1" d="M14.6,15.7c-.09.4-.18.62-.17.63a3.2,3.2,0,0,0,.79-.25,2.1,2.1,0,0,0,1-1.12c.21-.55.33-1.11.45-1.49s.24-.59.23-.6a2.45,2.45,0,0,0-.81.19A2,2,0,0,0,15,14.17a10.71,10.71,0,0,0-.42,1.53Z" transform="translate(-5.09 -5.58)"/><path class="cls-1" d="M16.65,14.38c-.1.38-.21.59-.2.6a3,3,0,0,0,.79-.19,2,2,0,0,0,1-1c.24-.53.38-1.07.52-1.44s.27-.57.26-.58a2.4,2.4,0,0,0-.82.13,1.86,1.86,0,0,0-1.1,1,11,11,0,0,0-.49,1.48Z" transform="translate(-5.09 -5.58)"/><path class="cls-1" d="M18.74,13.21c-.12.37-.23.57-.22.58a2.73,2.73,0,0,0,.79-.14,1.85,1.85,0,0,0,1.07-1c.26-.5.42-1,.58-1.38a4.73,4.73,0,0,1,.28-.55,2.25,2.25,0,0,0-.81.07,1.81,1.81,0,0,0-1.14.94,11.51,11.51,0,0,0-.55,1.43Z" transform="translate(-5.09 -5.58)"/><polygon class="cls-1" points="12.99 13.35 13 13.34 12.99 13.35 12.99 13.35"/><path class="cls-1" d="M16.38,20.75c-1.54,1.17-3.06-.13-5.54.14a5.91,5.91,0,0,0-2.09.65,25.57,25.57,0,0,1,4.82-4.17,1.41,1.41,0,0,0,2.36.78,10.92,10.92,0,0,0,.79-.87s-.17-.05-.43-.2a5.83,5.83,0,0,0-1-.56,2,2,0,0,0-1.25.17,1.84,1.84,0,0,0,.15-.35c.19-.57.28-1.14.39-1.54s.21-.61.2-.62a2.76,2.76,0,0,0-.81.24,2,2,0,0,0-1.09,1.17,1.16,1.16,0,0,0,.38,1.33c-.46.47-2.89,2.37-4.74,4.3.17-.31.34-.65.51-1,1.15-2.48,1.51-4.63,2.93-5.52s1.8-.52,1.8-.53-.65-.75-2,.06-1.82,2.49-2.92,5.31a18,18,0,0,1-1.66,3.13C6.45,23.43,6,24,6,24q-.32.84-.6,1.68s.73-1.06,1.81-2.37a6.75,6.75,0,0,1,4-1.65c2.62.12,3.89.89,5.3-.22a4,4,0,0,0,1.59-2.51c0,.08-.25.75-1.7,1.82Z" transform="translate(-5.09 -5.58)"/></svg>