<svg id="Camada_1" data-name="Camada 1" xmlns="http://www.w3.org/2000/svg" viewBox="0 0 37.23 22.65"><defs><style>.cls-1{fill:#69b3a5;}</style></defs><path class="cls-1" d="M45.14,15.48a1.81,1.81,0,0,0,2.06.72s-1.12-1.82-.9-1.95,1.08-.34.68-1.05c-1.1-.73-1.34-1-2-1.53s-2.26.05-2.26.05-1-.38-2-.72c-.05.16-.1.34-.16.55l-.09.34-.34-.08c0-.13.06-.24.09-.35h0c.06-.21.11-.4.16-.56a12,12,0,0,0-1.39-.36,52.11,52.11,0,0,0-6.17-1c-.06.32-.08.43-.11.54h0a10.05,10.05,0,0,0-.14,1.15l-.36,0c0-.45.1-.85.16-1.18h0c0-.12,0-.22.1-.51a35.78,35.78,0,0,0-4.07-.1C21.22,7.52,17,8.81,14.56,10.64l.06,0h0a9.73,9.73,0,0,1,.86.84l-.26.24a9.05,9.05,0,0,0-.83-.81h0l-.11-.1-.23.18a.9.9,0,0,1-.43,0,1.14,1.14,0,0,1-.25-.06h0a2.2,2.2,0,0,0,.53-1.89v0a1.08,1.08,0,0,0-.74-.93,1.38,1.38,0,0,0-1.34.44,1.35,1.35,0,0,0-.41,1.36,2.43,2.43,0,0,0,.64,1,2.32,2.32,0,0,1-1.59,0l-.49.51a1,1,0,0,0,.36.2,3.28,3.28,0,0,0,2.38-.23,3.08,3.08,0,0,0,.64.26,11.62,11.62,0,0,0-2,3,4.37,4.37,0,0,0-.35,1,6.36,6.36,0,0,0-.12.63,13,13,0,0,0-.06,2.81c.07.82,1.32,3.9,1.34,4.92l.25,0-.05.35-.22,0c-.07.76-.28,1.19-.32,1.83a8.18,8.18,0,0,0,.44,2.18s-.09,2.26.32,2.26,1.23.07,1.95.07c0-1.09-.87-1.28-.86-1.61s.1-2.56.41-2.63.66-.92.94-1.81l-.66,0,0-.35.73,0,0-.35a1.16,1.16,0,0,1-.14-.36,1.41,1.41,0,0,1,.12-.61,3.71,3.71,0,0,1,.28-.44l.2-.3.29.2-.2.29-.25.39a1.21,1.21,0,0,0-.07.55c0,.12.41.61.57,1s2.26,1.63,2.58,2.38.16,1.85.78,1.85a15.42,15.42,0,0,1,1.63,0c0-1.08-.84-1.2-.94-1.6s-1.47-3-1.47-3.36a3.85,3.85,0,0,1,1-1.71,40.49,40.49,0,0,0,4.49.56s.35,0,.36,0c2.79.2,5.05.16,5.05.16s.81,1.71.52,2.55-.23,3.17.26,3.23,1.47,0,1.95,0c0-.87-1-.94-1-1.38a14.79,14.79,0,0,1,1.15-3,8.61,8.61,0,0,1-.84-.51l.2-.29c.29.2.58.36.81.49.11-.22.2-.35.24-.34a5.63,5.63,0,0,1,.85.84,3.28,3.28,0,0,0,.43,1.68c.37.71,1.18,3.22,1.73,3.22s.55,0,1.55,0c0-1.14-1.28-1-1.28-1.93a20,20,0,0,1-.19-5.36L36,22a6.24,6.24,0,0,0,0-.69h0c0-.11,0-.22,0-.34l.35-.05c0,.13,0,.24,0,.36a2.8,2.8,0,0,1,0,.4c.91-.86,2.5-2.45,3.09-3.05v-.07c0-.39-.05-.79-.05-1.19h.35c0,.38,0,.76.05,1.13a5.78,5.78,0,0,0,5.06,1.37c.14,0,.32.47.56.51s1.44-1.07,1.46-1.36S45,17.35,45.14,15.48ZM12.72,10.6a1.7,1.7,0,0,1-.63-.88.69.69,0,0,1,.23-.66A.74.74,0,0,1,13,8.8c.15,0,.22.24.26.39A1.44,1.44,0,0,1,12.72,10.6Zm1.38,14-.36,0h0l-1.17-.15,0-.35c.42.06.82.11,1.16.14h0l.35,0Zm18-12.86h0l0-.35.35,0,0,.35h0c0,.36,0,.76,0,1.17h-.36C32.08,12.55,32.1,12.15,32.12,11.78Zm-.06,1.78h0c0-.12,0-.24,0-.36h.35v.35c0,.16,0,.31,0,.46s0,.49,0,.71h-.35c0-.23,0-.47,0-.72ZM30.14,17a3.09,3.09,0,0,1,1.11-.54l.09.34a2.84,2.84,0,0,0-1,.48h0l-.26.22-.23-.26A2.09,2.09,0,0,1,30.14,17ZM16.89,13.46h0a7.54,7.54,0,0,1,.5,1.09l-.33.12a8,8,0,0,0-.48-1c0-.1-.11-.2-.17-.3l.3-.18Zm-1.51-1.52.26-.23a2,2,0,0,1,.23.27h0a8.78,8.78,0,0,1,.71,1l-.29.19a11.14,11.14,0,0,0-.69-.93Zm1.28,9.35h0c-.25.4-.49.76-.65,1l-.29-.2c.16-.23.39-.59.63-1l.18-.3.31.17Zm.83-1.58h0c-.15.34-.33.7-.53,1.07l-.31-.18a11.08,11.08,0,0,0,.52-1h0c0-.11.09-.22.14-.32l.32.13C17.59,19.49,17.54,19.6,17.49,19.71ZM18,18h0a6.35,6.35,0,0,1-.32,1.16L17.39,19a6.77,6.77,0,0,0,.3-1.1c0-.11,0-.23,0-.34l.35,0C18.08,17.74,18.06,17.87,18,18Zm.06-.61h-.35v-.1a2.86,2.86,0,0,0-.17-1,1,1,0,0,1,0-.1l-.34-1a2.33,2.33,0,0,0-.07-.25l.34-.11c0,.12.07.24.1.35s.31,1,.31,1l0,.06h0a3,3,0,0,1,.19,1.11Zm1.28-.59a4.43,4.43,0,0,0-1-.56l-.31-.09L18,15.75a4.38,4.38,0,0,1,.57.15,4.5,4.5,0,0,1,1.06.6Zm1.16.91h-.05l-.07,0,0,0a7,7,0,0,0-.56-.51h0l-.27-.22.21-.28.28.23c.25.21.45.38.54.47h.32l0,.35Zm1,0h-.35v-.35h.35l1.18,0v.35Zm2.94,0H22.93v-.35h1.53Zm1.76.05-1.18,0h-.35V17.3h.35l1.18,0Zm1.75.1-1.17-.07h0l-.35,0,0-.35.35,0h0l1.18.07Zm.59.05-.35,0,0-.35.35,0,1,.1.06-.08a.46.46,0,0,0,.07-.07l.26.24a.46.46,0,0,0-.07.07,1.33,1.33,0,0,0-.14.19l0,0a1.91,1.91,0,0,0-.26.67,1.64,1.64,0,0,0-.05.32l-.35,0c0-.12,0-.25.05-.37a2.48,2.48,0,0,1,.23-.63Zm.62,2.54h0A4.85,4.85,0,0,1,29,19.24v-.06h.36v0a4.66,4.66,0,0,0,.13,1.07c0,.11.05.22.09.33l-.34.1A2.58,2.58,0,0,1,29.18,20.39Zm.79,2c-.06-.1-.12-.2-.18-.32h0A8.31,8.31,0,0,1,29.34,21l.33-.11a8.3,8.3,0,0,0,.44,1.07h0l.16.3Zm1.21,1.36a3.11,3.11,0,0,1-.28-.23,3.47,3.47,0,0,1-.63-.65,3.16,3.16,0,0,1-.18-.27l.3-.18a2.5,2.5,0,0,0,.16.24,3.48,3.48,0,0,0,.57.59l.27.22ZM33,16.9a3.29,3.29,0,0,0-1.1-.14l-.33,0-.06-.35a2.33,2.33,0,0,1,.37,0h0a1,1,0,0,1,.24,0c0-.18,0-.57,0-1.08,0-.11,0-.23,0-.36h.35c0,.12,0,.24,0,.35h0c0,.56,0,1,0,1.11a3.66,3.66,0,0,1,.62.14Zm1.4.69a5.46,5.46,0,0,0-.87-.49L33.2,17l.12-.33.34.14a5.43,5.43,0,0,1,.93.52l.13.09-.22.28Zm.5.46h0a2.61,2.61,0,0,0-.22-.24l.24-.26a2.26,2.26,0,0,1,.25.28,3.83,3.83,0,0,1,.61,1.06l-.32.13A4.06,4.06,0,0,0,34.89,18.05Zm1,2.64a7,7,0,0,0-.25-1.13h0c0-.11-.06-.22-.1-.33l.33-.11a3.38,3.38,0,0,1,.11.34,7.75,7.75,0,0,1,.26,1.17Zm3.85-4c0,.11,0,.23,0,.35h-.35v-.36h0c0-.39,0-.79.07-1.19l.35,0Q39.74,16.17,39.73,16.74ZM39.85,15h0c0,.12,0,.23,0,.35l-.35,0c0-.12,0-.24,0-.36h0c0-.38.09-.78.16-1.17l.35.06C39.94,14.22,39.89,14.61,39.85,15Zm.26-1.73h0l-.06.35-.35-.07.06-.35c.08-.38.16-.77.26-1.15l.34.08C40.27,12.5,40.18,12.88,40.11,13.26Z" transform="translate(-9.97 -8.09)"/></svg>