<svg id="Camada_1" data-name="Camada 1" xmlns="http://www.w3.org/2000/svg" viewBox="0 0 18.2 27.4"><defs><style>.cls-1{fill:#69b3a5;}</style></defs><path class="cls-1" d="M10.26,22.24l.31.21-.45.63c.33.36.71,1.17,1.38,1.46l-.16-.42h0a5.31,5.31,0,0,1-.23-1.28l.38,0A4.07,4.07,0,0,0,11.7,24l.23.64.8,0c.15.64.49,2.4,0,3.15-.53.54-2.34.36-2.74.36s-.08.4.22.4a6.62,6.62,0,0,1,1.74.1c.07.15-.49.4-.79.46s-.49.11-.3.23,3.54-.18,3.19-1.81a2.68,2.68,0,0,1,.92.33c.22.1.36-.17.14-.33s-1.39-.92-1.39-.92l.08-1.95a4.22,4.22,0,0,0,.8,0,6.53,6.53,0,0,0,.62-.68l.23-.29.3.22-.23.3-.16.19a10.83,10.83,0,0,0,4.08-3.9l-.32-.56a5.81,5.81,0,0,0-.57-.73l.3-.22a6.66,6.66,0,0,1,.65.86l.16.3a3.11,3.11,0,0,0,.21-2.57c1.37-1.79,1.09-3.63.73-3.53,2-1,1.78-3.7,1.31-5.25s-3.64-.44-4.67,1.72a4.09,4.09,0,0,1-4.59,2.09c-.91-.37-1.1-1.34-1.63-1.37,0-.23,0-.45,0-.66-.59.38-.9.58-1.19.75h0l-.34.19-.17-.33L9.61,11c.31-.18.65-.4,1.35-.86V10c-.32-4.42-2.35-6-2.35-6s.75-.77.68-.86-.78.24-.85.17.25-.89.18-.95-.68.57-.74.53.1-.82,0-.88-.39.79-.51.77S7,1.93,6.85,1.93s-.07.85-.19.85-.61-.47-.72-.41.3.78.3.78a2.35,2.35,0,0,0-.48.91c0,.33-1.26.66-1.18.88S5.66,5,5.66,5s-.32.91.06,1.36.75.2.72-.16c.24,1.75-.58,3.46-1.33,5.32l.39.06,0,.37L5,11.83a12.76,12.76,0,0,0-1,3.82C3.81,19,8.64,22,9.83,22.85ZM7.35,12H7.18c-.33,0-.7,0-1.1-.06l-.38,0,0-.37.37,0a10.71,10.71,0,0,0,1.22.05Zm2.1,3.53.34-.16a2.28,2.28,0,0,0,.17.3,2.88,2.88,0,0,0,.86.79l-.2.31a3.23,3.23,0,0,1-1-.89A1.75,1.75,0,0,1,9.45,15.57Zm.48-1.87-.3-.21a2,2,0,0,1,.16-.27l.29.21A1.6,1.6,0,0,0,9.93,13.7Zm-.68,1A2.18,2.18,0,0,1,9.38,14h0a2.64,2.64,0,0,1,.18-.38l.32.2a2.1,2.1,0,0,0-.15.3,1.76,1.76,0,0,0-.1.6,1.51,1.51,0,0,0,.08.51l-.36.11A2.17,2.17,0,0,1,9.25,14.69Zm.38-2.23-.19.32-.32-.19-1-.62L8,12H8l-.39,0,0-.38.35,0,.18,0a4,4,0,0,0,1-.35l.16.34a5.85,5.85,0,0,1-.61.26ZM11.3,13l-.37,0a5.88,5.88,0,0,0-.69.13l-.08,0-.51-.32.2-.32.37.23a6.44,6.44,0,0,1,.66-.12l.39,0Zm1.23,4-.08.37a2.14,2.14,0,0,0,0,.43,5.28,5.28,0,0,1,0,.55c0,.13,0,.26-.07.39L12,18.71c0-.12.05-.23.07-.35a4.32,4.32,0,0,0,0-.5,3.1,3.1,0,0,0-.05-.54c-.26-.07-.52-.14-.78-.23l-.3-.1-.08,0,.18-.33,0,0,.28.1h0A11.09,11.09,0,0,0,12.53,17.06Zm.67-4.14-.15.34-.33-.11a3.75,3.75,0,0,0-1-.13h-.14v-.38h.15a4.45,4.45,0,0,1,1.14.14h0Zm1.4,1.36-.32.19-.2-.3-.24-.32a2,2,0,0,0-.58-.49l.18-.33a2.6,2.6,0,0,1,.69.58c.09.12.18.23.26.35ZM17,16.06l-.09.2a2,2,0,0,1-.17.32,1.92,1.92,0,0,1-.26.32l-.26-.27a1.33,1.33,0,0,0,.21-.26l0-.06c-.27-.08-.49-.16-.68-.23l.15-.35a8.47,8.47,0,0,0,.85.28Zm.07,2,.22-.31a6.56,6.56,0,0,1,1.44,1l-.29.24A7.64,7.64,0,0,0,17,18.07Zm-.2-.13-.31-.19a3.68,3.68,0,0,0-.83-.36,2.83,2.83,0,0,1-.68.19h0l-.39.05,0-.37.36-.05h0a2.72,2.72,0,0,0,.51-.13l.2-.08a3,3,0,0,0,.35-.22l.23.3-.1.07a4.92,4.92,0,0,1,.57.28l.33.2Zm-.25,3.88-.37,0a1.85,1.85,0,0,0,0-.23,2.33,2.33,0,0,0-.18-.9c-.05-.1-.1-.21-.16-.31l.32-.19a2.31,2.31,0,0,1,.18.35,2.71,2.71,0,0,1,.22,1.05A2.45,2.45,0,0,1,16.57,21.82Zm-1,1.61a4.09,4.09,0,0,0,.52-1.08,2.14,2.14,0,0,0,.09-.34l.37.07c0,.13-.06.26-.1.38a4.8,4.8,0,0,1-.56,1.17ZM14.5,19.38l.1-.36.37.12a5.21,5.21,0,0,1,.64.3h0l0,0a5,5,0,0,1,.38.45l-.3.22a2.9,2.9,0,0,0-.33-.38,4.8,4.8,0,0,0-.57-.27Zm-.1-4.7.33-.18a2.6,2.6,0,0,0,.13.24,2,2,0,0,0,.52.72h0a2,2,0,0,0,.29.17L15.5,16a2.1,2.1,0,0,1-1-1.05Zm-.05,3h-.14a7.91,7.91,0,0,1-1.14-.09l-.37-.07.07-.37.36.07a6.58,6.58,0,0,0,1.21.09Zm-1.71,1.49A2.5,2.5,0,0,1,13,19a2.7,2.7,0,0,1,1.33,0l-.08.37a2.18,2.18,0,0,0-1.14,0,1.43,1.43,0,0,0-.31.12Zm-.86,1.63-.51-.2.21-.46A7.31,7.31,0,0,0,11.89,19l.37.1c0,.16-.1.32-.16.49a1.86,1.86,0,0,1,.31-.26l.21.3a2.38,2.38,0,0,0-.71.89h0ZM10.4,22l.2-.31c.23-.36.41-.69.59-1l.53.23a5.88,5.88,0,0,0-.23,1.3c0,.11,0,.21,0,.32v0h-.37v-.39a6.31,6.31,0,0,1,.1-.76c-.1.17-.19.33-.3.49s-.13.22-.2.32Z" transform="translate(-4 -1.93)"/></svg>