<svg id="Camada_1" data-name="Camada 1" xmlns="http://www.w3.org/2000/svg" viewBox="0 0 46.95 14.55"><defs><style>.cls-1{fill:#69b3a5;}</style></defs><path class="cls-1" d="M15.64,22.84a4.73,4.73,0,0,0,4.43,3.06,3.87,3.87,0,0,0,.48,0l12.66-1.26v-5.2h3v4.91L48.7,23.07a3.67,3.67,0,0,0,0-7.32L27.53,13.64v5.77h-3V13.35l-4-.4a3.85,3.85,0,0,0-.48,0A4.71,4.71,0,0,0,15.64,16a13.75,13.75,0,0,1-8-3.85L5.54,14.22a16.81,16.81,0,0,0,5.78,3.72H5.11v2.95h6.21A16.78,16.78,0,0,0,5.54,24.6l2.12,2.09A13.69,13.69,0,0,1,15.64,22.84Z" transform="translate(-5.11 -12.14)"/></svg>