<svg id="Camada_1" data-name="Camada 1" xmlns="http://www.w3.org/2000/svg" viewBox="0 0 26.35 29.52"><defs><style>.cls-1{fill:#69b3a5;}</style></defs><path class="cls-1" d="M40.08,21.64c-2.14-3.94-6.21-7-9.75-5.94C25.39,8.34,29,6.87,28.79,5.55c-.38-2.37-7.22-.21-7.77,8.35-3.18.77-5.61,4.88-5.61,9.84,0,5.51,3,10,6.7,10,2,0,3.79-1.32,5-3.39-3.23-4.92-3.62-10.89-.86-14.41a5.93,5.93,0,0,0-3-2c.1-1.23.54-4.17,2.35-5.89-.4,3,1.16,6.33,2.82,8.81-2.29,2.25-2.42,6.92-.1,11.2,2.63,4.84,7.4,7.34,10.65,5.58S42.71,26.49,40.08,21.64Z" transform="translate(-15.41 -4.65)"/></svg>