<svg id="Camada_1" data-name="Camada 1" xmlns="http://www.w3.org/2000/svg" viewBox="0 0 23.39 28.82"><defs><style>.cls-1{fill:#69b3a5;}</style></defs><path class="cls-1" d="M39.84,17.92a6.55,6.55,0,0,0-5-4.75A9.26,9.26,0,0,0,32.91,13a6.28,6.28,0,0,0-3.54,1,11.57,11.57,0,0,0-.14-1.75l.49,0a6.34,6.34,0,0,0,4.39-1.52c1.8-1.8,1.5-4.88,1.49-5l-.07-.63L34.91,5a4.25,4.25,0,0,0-.63,0,6.32,6.32,0,0,0-4.39,1.52,5.32,5.32,0,0,0-1.37,2.83,23.13,23.13,0,0,0-1.76-3.91.77.77,0,0,0-1.35.76A16.59,16.59,0,0,1,27.82,14a6.43,6.43,0,0,0-3.56-1h0a8.39,8.39,0,0,0-1.9.19,6.49,6.49,0,0,0-5,4.72,14.83,14.83,0,0,0-.09,6.81A14.51,14.51,0,0,0,20,30.51a10.16,10.16,0,0,0,2.42,2.29,5.88,5.88,0,0,0,3.22,1,5.35,5.35,0,0,0,3-.93,5.35,5.35,0,0,0,3,.93,5.88,5.88,0,0,0,3.22-1,10.2,10.2,0,0,0,2.42-2.3,14.79,14.79,0,0,0,2.62-12.58Zm-.74.22a6.26,6.26,0,0,0-1.51-2.63A6.26,6.26,0,0,1,39.1,18.14Z" transform="translate(-16.89 -5)"/></svg>