<svg id="Camada_1" data-name="Camada 1" xmlns="http://www.w3.org/2000/svg" viewBox="0 0 28.71 28.62"><defs><style>.cls-1{fill:#69b3a5;}</style></defs><path class="cls-1" d="M35,19.57a2.91,2.91,0,0,1-3,2.5,2.64,2.64,0,0,1-2.16-2.47c0-1.92,2.72-3.51,4.14-2.76a2.65,2.65,0,0,1,1,2.73Zm-7.33,6.61a1.15,1.15,0,0,1-1.39.28,1.43,1.43,0,0,1-.14-2.15,1.14,1.14,0,0,1,1.23.22,1.25,1.25,0,0,1,.3,1.65ZM21.71,21A1.26,1.26,0,0,1,20.42,22,1.14,1.14,0,0,1,19.49,21a1.43,1.43,0,0,1,1.79-1.19A1.13,1.13,0,0,1,21.71,21Zm20.78-10.5L14.6,18.8a.35.35,0,0,0-.25.34v3.78a2.93,2.93,0,0,1,0,5.85v4.6a.34.34,0,0,0,.45.33L23.41,31a1.51,1.51,0,0,1,1.23-1.88,1.33,1.33,0,0,1,1.25,1.1l11-3.5a.71.71,0,0,1-.09-.36.7.7,0,0,1,.64-.74.69.69,0,0,1,.64.73l4.53-1.43a.36.36,0,0,0,.24-.34l0-13.75a.35.35,0,0,0-.45-.34Z" transform="translate(-14.23 -5.1)"/><path class="cls-1" d="M24.55,11.72c1,0,1.74.37,1.74.82s-.79.81-1.75.81S22.8,13,22.8,12.53s.79-.81,1.75-.81Zm4.58-3.9c1.2,0,2.17.46,2.17,1s-1,1-2.17,1S27,9.38,27,8.82s1-1,2.17-1ZM14.44,18.66,42.3,10.35a.16.16,0,0,0,0-.31l-15-4.93a.18.18,0,0,0-.17,0L14.28,18.4a.16.16,0,0,0,.16.26Z" transform="translate(-14.23 -5.1)"/><path class="cls-1" d="M34,17.14a1.57,1.57,0,0,0-.4-.27.82.82,0,0,0-.34-.09.28.28,0,0,0-.13,0h-.09l-.07,0h.07l.08,0,.11.05a.85.85,0,0,1,.25.17,1.58,1.58,0,0,1,.24.31,2,2,0,0,1,.11.2,1.73,1.73,0,0,1,.1.24,2.63,2.63,0,0,1,.15.52,3.33,3.33,0,0,1,0,1.22,3.78,3.78,0,0,1-.17.6,4.25,4.25,0,0,1-.27.52,3.79,3.79,0,0,1-.34.43l0,0-.05.05-.09.08,0,0-.05,0,0,0s0,0,0,0a3.65,3.65,0,0,1-.62.4l-.06,0,0,0-.08,0-.07,0h.29a2.56,2.56,0,0,0,.77-.2l.06,0,.06,0,.06,0,.06,0,.13-.07.06,0,.06,0a3.27,3.27,0,0,0,.5-.43,3,3,0,0,0,.42-.61,2.85,2.85,0,0,0,.26-.76,3.6,3.6,0,0,0,0-.8,3.16,3.16,0,0,0-.17-.72,2.51,2.51,0,0,0-.3-.59,2,2,0,0,0-.18-.23,1.21,1.21,0,0,0-.19-.2Z" transform="translate(-14.23 -5.1)"/><path class="cls-1" d="M27.32,24.62l-.07-.05-.06,0-.06,0-.05,0H27v0l0,0s0,0,0,0a1.91,1.91,0,0,1,.1.23s0,.05,0,.07l0,.08s0,.06,0,.09v.08a.09.09,0,0,0,0,.05v.14a1.28,1.28,0,0,1,0,.19,1.1,1.1,0,0,1,0,.18v.09l0,.05a.06.06,0,0,1,0,0v.09l0,.08,0,.07s0,.05,0,.08a1,1,0,0,1-.13.21s0,0,0,0l0,0v0H27l.06,0,.07,0,.08-.05.08,0,.08-.07.08-.08,0-.05a.1.1,0,0,0,0,0,.84.84,0,0,0,.12-.23,1.27,1.27,0,0,0,.06-.28,1.37,1.37,0,0,0,0-.29A1.45,1.45,0,0,0,27.6,25l0-.06,0,0-.06-.09-.08-.07a.23.23,0,0,0-.07-.07Z" transform="translate(-14.23 -5.1)"/><path class="cls-1" d="M21.31,20l0,0h0l0,0,0,0v.16a.64.64,0,0,1,0,.07s0,0,0,.07a.22.22,0,0,1,0,.08.28.28,0,0,0,0,.09v.29a746328127394.49,746328127394.49,0,0,1,0,.1v.1a1.67,1.67,0,0,1-.08.2,1.62,1.62,0,0,1-.1.18l0,0,0,0,0,0,0,0,0,0,0,0,0,0h0l0,0,0,0,0,0-.07.06-.07,0-.06,0-.06,0-.05,0h-.08l0,0h.36l.11,0,.06,0h.05l.06,0,0,0h0l.06,0,.06,0,.06,0,.06,0,.06-.05.05-.06a1.06,1.06,0,0,0,.18-.27.91.91,0,0,0,.09-.31v-.23s0-.05,0-.07,0-.05,0-.07a.64.64,0,0,1,0-.07v-.06l0-.06,0-.05,0-.05-.05-.1-.06-.07-.06-.07L21.31,20Z" transform="translate(-14.23 -5.1)"/><path class="cls-1" d="M23.13,12.46l.07-.05.05,0,0,0h0a2.24,2.24,0,0,1,.46-.16l.28,0,.3,0h.61l.51,0,.35,0h.13l-.11-.07L25.49,12a2.56,2.56,0,0,0-.51-.16,1.55,1.55,0,0,0-.31-.06,2,2,0,0,0-.35,0,2,2,0,0,0-.35,0,1.7,1.7,0,0,0-.32.1,1.48,1.48,0,0,0-.47.31l0,0,0,0,0,0a.21.21,0,0,0-.06.08.77.77,0,0,0-.09.13l0,.09,0,0,0,0,.07-.06.13-.09Z" transform="translate(-14.23 -5.1)"/><path class="cls-1" d="M27.37,8.61l.22-.11.28-.09.08,0,.08,0,.17,0,.18,0h1.38l.34,0,.3.05.44.09.12,0h0l0,0-.11-.07a4.35,4.35,0,0,0-.4-.21L30.16,8A3.15,3.15,0,0,0,29.8,8l-.1,0h-.1l-.1,0h-.76l-.11,0-.11,0h-.1l-.1,0-.2.06a2.11,2.11,0,0,0-.62.3,1.23,1.23,0,0,0-.2.19.74.74,0,0,0-.12.16l-.07.11,0,0,0,0,.09-.08.15-.11Z" transform="translate(-14.23 -5.1)"/><path class="cls-1" d="M14.43,28.64l.25-.16a5,5,0,0,0,.65-.47,2.82,2.82,0,0,0,.69-.87,3,3,0,0,0,.33-1.28,2.74,2.74,0,0,0-.27-1.29,3,3,0,0,0-.67-.89,3.16,3.16,0,0,0-.64-.46l-.2-.1-.07,0h.08a1.31,1.31,0,0,1,.22,0,2.37,2.37,0,0,1,.78.3,3,3,0,0,1,.93.89,2.68,2.68,0,0,1,.43,1.54,2.9,2.9,0,0,1-.5,1.52,2.61,2.61,0,0,1-1,.86,3.4,3.4,0,0,1-.77.31,2.35,2.35,0,0,1-.29.08Z" transform="translate(-14.23 -5.1)"/></svg>