<svg id="Camada_1" data-name="Camada 1" xmlns="http://www.w3.org/2000/svg" viewBox="0 0 40.41 33.46"><defs><style>.cls-1{fill:#69b3a5;}.cls-10,.cls-11,.cls-2,.cls-3,.cls-4,.cls-5,.cls-6,.cls-7,.cls-8,.cls-9{fill:none;stroke:#fff;stroke-linecap:square;stroke-miterlimit:10;stroke-width:0.4px;}.cls-3{stroke-dasharray:0.39 0.98;}.cls-4{stroke-dasharray:0.39 0.98;}.cls-5{stroke-dasharray:0.39 0.97;}.cls-6{stroke-dasharray:0.45 1.11;}.cls-7{stroke-dasharray:0.4 0.99;}.cls-8{stroke-dasharray:0.4 1.01;}.cls-9{stroke-dasharray:0.49 1.23;}.cls-10{stroke-dasharray:0.24 0.61;}.cls-11{stroke-dasharray:0.37 0.92;}</style></defs><path class="cls-1" d="M50,9s-1.3-1.65-1.54-1.87A12.93,12.93,0,0,1,47.3,6a4.14,4.14,0,0,0-2.21-1.7l.6-1.06a7.07,7.07,0,0,0-1.55.86A2.53,2.53,0,0,0,41,2.8s2,.7,2.21,1.49a21.41,21.41,0,0,0-4.82,5.3A2.86,2.86,0,0,1,36.68,11c-1.1.21-3,.65-3.85.7s-5.91,0-9.33-.31-5.32-1.25-9.6.47A5.77,5.77,0,0,1,12,11c-1.28-.75-2.18-2.26-2.44-1.52s2.52,2.8,3,3.22a9,9,0,0,0,1.11,8,23.81,23.81,0,0,1-.58,2.85,7,7,0,0,0-.07,4.55,3.58,3.58,0,0,1-.29,3.18.88.88,0,0,1,.71,1,1.28,1.28,0,0,0,.95.45c.6,0,1.7.42,1.12-.95a11.86,11.86,0,0,1-1.13-3.64c0-.76.09-1.59.09-1.59A13.75,13.75,0,0,1,16,30.5c.25,1.8.22,1.54.22,1.54a12.84,12.84,0,0,0,.22,1.66c.14.44.38,1.07.44,1.35s0,.92.67,1a4.66,4.66,0,0,0,1.91-.1s.42.12.06-.67-.82-.86-1.19-2-1.25-4.25-.86-6.13,1.11-4.3,1.81-4.19S27.89,24.62,33,21.84l.16,3.79s0,3.07-.08,4.09a16.86,16.86,0,0,1-.23,2.72c-.17.69-.58,1,0,1.49a.9.9,0,0,1,.33,1c0,.16.05.51.76.49s2.56.08,1.86-.92-1.48-2.12-1.11-3.22c0,0,.45,1.2.5,1.46h1.36s1,.18.67-.61-.83-2-1-2.61-.09-5.18.51-5.92A18.63,18.63,0,0,0,40,19.19c.75-1.81,2-5.35,2.5-6.4s1.61-2.85,3.07-2.66S48,10,47.7,11.1s0,.12,0,.12-.18,1,.48,1.11a1.27,1.27,0,0,1,.3-1.49C49.18,10.07,49.92,9.42,50,9Z" transform="translate(-9.58 -2.68)"/><path class="cls-2" d="M19,10.78s0,.07,0,.19" transform="translate(-9.58 -2.68)"/><path class="cls-3" d="M19.2,11.94a58.26,58.26,0,0,1,.37,10.45" transform="translate(-9.58 -2.68)"/><path class="cls-2" d="M19.55,22.89v.2" transform="translate(-9.58 -2.68)"/><path class="cls-2" d="M26,11.42a1.9,1.9,0,0,0,0,.19" transform="translate(-9.58 -2.68)"/><path class="cls-4" d="M25.71,12.57A66.57,66.57,0,0,1,22.6,22.63" transform="translate(-9.58 -2.68)"/><path class="cls-2" d="M22.41,23.09a1.08,1.08,0,0,1-.08.19" transform="translate(-9.58 -2.68)"/><path class="cls-2" d="M32.69,11.42a1.16,1.16,0,0,1,.09.18" transform="translate(-9.58 -2.68)"/><path class="cls-5" d="M33.18,12.47a18.24,18.24,0,0,1,1.36,6.1" transform="translate(-9.58 -2.68)"/><path class="cls-2" d="M34.55,19.06v.2" transform="translate(-9.58 -2.68)"/><path class="cls-2" d="M37.54,10.64l.06.19" transform="translate(-9.58 -2.68)"/><path class="cls-6" d="M38.05,11.84a7,7,0,0,0,2.85,2.9" transform="translate(-9.58 -2.68)"/><path class="cls-2" d="M41.41,15l.19.08" transform="translate(-9.58 -2.68)"/><path class="cls-2" d="M39,20.79l-.17-.11" transform="translate(-9.58 -2.68)"/><path class="cls-7" d="M38,20.23c-4.73-2-11,.56-14.42,1.55" transform="translate(-9.58 -2.68)"/><path class="cls-2" d="M23.06,21.91l-.19.05" transform="translate(-9.58 -2.68)"/><path class="cls-2" d="M18.83,23l-.19.06" transform="translate(-9.58 -2.68)"/><path class="cls-8" d="M17.66,23.31A6.58,6.58,0,0,1,14,23" transform="translate(-9.58 -2.68)"/><path class="cls-2" d="M13.54,22.79l-.17-.1" transform="translate(-9.58 -2.68)"/><path class="cls-2" d="M36.49,23.9l-.18.07" transform="translate(-9.58 -2.68)"/><path class="cls-9" d="M35.09,24.11A9.52,9.52,0,0,1,34,24" transform="translate(-9.58 -2.68)"/><path class="cls-2" d="M33.37,23.94l-.2,0" transform="translate(-9.58 -2.68)"/><path class="cls-2" d="M17.54,28.67a.92.92,0,0,1-.2,0" transform="translate(-9.58 -2.68)"/><path class="cls-10" d="M16.74,28.73h-.55" transform="translate(-9.58 -2.68)"/><path class="cls-2" d="M15.87,28.74h-.2" transform="translate(-9.58 -2.68)"/><path class="cls-2" d="M39.73,7.83a1.19,1.19,0,0,0,.08.17" transform="translate(-9.58 -2.68)"/><path class="cls-11" d="M40.34,8.75a5.43,5.43,0,0,0,3,1.55" transform="translate(-9.58 -2.68)"/><path class="cls-2" d="M43.76,10.38l.2,0" transform="translate(-9.58 -2.68)"/></svg>