<svg id="Camada_1" data-name="Camada 1" xmlns="http://www.w3.org/2000/svg" viewBox="0 0 34.48 26.62"><defs><style>.cls-1{fill:#69b3a5;}</style></defs><polygon class="cls-1" points="16.63 24.98 20.46 26.03 20.46 19.36 16.63 19.36 16.63 24.98"/><polygon class="cls-1" points="10.53 23.31 14.36 24.36 14.36 19.36 10.53 19.36 10.53 23.31"/><path class="cls-1" d="M35.92,23.56,42.39,30a10.53,10.53,0,0,0,3.44-6.69H36Z" transform="translate(-11.35 -6.1)"/><path class="cls-1" d="M36,21.06h9.82a10.81,10.81,0,0,0-3.39-6.74l-6.52,6.52Z" transform="translate(-11.35 -6.1)"/><polygon class="cls-1" points="2.75 26.61 5.77 26.61 8.25 24.14 8.25 19.36 2.75 19.36 2.75 26.61"/><path class="cls-1" d="M40.6,12.94a10.26,10.26,0,0,0-5.23-1.44H34.09v7.64l.22.09Z" transform="translate(-11.35 -6.1)"/><path class="cls-1" d="M34.09,25.26v7.38a10.86,10.86,0,0,0,1.28.08,10.56,10.56,0,0,0,5.15-1.34l-6.21-6.21Z" transform="translate(-11.35 -6.1)"/><path class="cls-1" d="M15.19,11.5a1.56,1.56,0,1,1,0-3.12H29.38V6.1H15.19a3.84,3.84,0,0,0,0,7.68h1.65a7.42,7.42,0,0,0,7.07,5.15h7.9V11.5Z" transform="translate(-11.35 -6.1)"/></svg>