<svg id="Camada_1" data-name="Camada 1" xmlns="http://www.w3.org/2000/svg" viewBox="0 0 30.31 30"><defs><style>.cls-1{fill:#69b3a5;}</style></defs><path class="cls-1" d="M43.74,12.29a5.51,5.51,0,0,0-7.85-5,4.57,4.57,0,0,0-7.41-1.62A5.42,5.42,0,0,0,21,6.53a3.72,3.72,0,0,0-2.72,1.11h-.26a4.62,4.62,0,0,0-3.84,7.19,3.9,3.9,0,0,0-.36,1.66,4,4,0,0,0,4,4,3.93,3.93,0,0,0,1.79-.42l.2.17c.18.28,2.76,4.4,3.2,7.12.47,3,.61,6,.61,6a1.07,1.07,0,0,0,1.07,1h7.66a1.07,1.07,0,0,0,1.07-1s.14-3.06.61-6c.36-2.26,2.21-5.49,2.92-6.67a5.64,5.64,0,0,0,.69-.36,3.74,3.74,0,0,0,1.33.25,3.61,3.61,0,0,0,3.6-3.6,3.48,3.48,0,0,0-.19-1.16A5.51,5.51,0,0,0,43.74,12.29Zm-19.4,8.16a4,4,0,0,0,1.33.22H26l-.24,2.59L24,20.63A2.38,2.38,0,0,0,24.34,20.45Zm7.51-.61a4.72,4.72,0,0,0,1.27.83l-1.71,2.58-.27-3A3.81,3.81,0,0,0,31.85,19.84Z" transform="translate(-13.44 -4.41)"/></svg>